<svg xmlns="http://www.w3.org/2000/svg" width="210" height="290" viewBox="0 0 210 290"><rect width="100%" height="100%" fill="#DDDDDD"/><path fill="#999999" d="M44.545 139.255h2.31q.64 0 1.07-.15.43-.15.69-.41.26-.25.38-.59.11-.34.11-.72 0-.4-.13-.72-.12-.32-.4-.55-.27-.22-.7-.34-.43-.12-1.03-.12h-2.3v3.6Zm1.94-8.73h-1.94v3.55h1.81q1.18 0 1.78-.43.6-.42.6-1.35 0-.96-.55-1.37-.54-.4-1.7-.4Zm-4.23-1.77h4.23q1.21 0 2.07.23.86.23 1.4.65.55.43.81 1.03.25.6.25 1.36 0 .43-.12.83-.13.4-.4.74-.27.34-.68.62-.41.28-.98.48 2.53.57 2.53 2.74 0 .78-.3 1.44-.29.67-.86 1.15-.57.48-1.41.75-.83.27-1.9.27h-4.64v-12.29Zm14.72 3.43q.97 0 1.77.32.79.31 1.36.89.56.58.87 1.41.3.83.3 1.86 0 1.04-.3 1.87-.31.84-.87 1.42-.57.59-1.36.9-.8.32-1.77.32-.98 0-1.78-.32-.79-.31-1.36-.9-.56-.58-.87-1.42-.32-.83-.32-1.87 0-1.03.32-1.86.31-.83.87-1.41.57-.58 1.36-.89.8-.32 1.78-.32Zm0 7.37q1.09 0 1.61-.73t.52-2.14q0-1.41-.52-2.15t-1.61-.74q-1.1 0-1.63.74-.54.75-.54 2.15t.54 2.14q.53.73 1.63.73Zm9.77-7.37q.97 0 1.76.32.8.31 1.36.89.57.58.87 1.41.31.83.31 1.86 0 1.04-.31 1.87-.3.84-.87 1.42-.56.59-1.36.9-.79.32-1.76.32-.98 0-1.78-.32-.8-.31-1.36-.9-.57-.58-.88-1.42-.31-.83-.31-1.87 0-1.03.31-1.86.31-.83.88-1.41.56-.58 1.36-.89.8-.32 1.78-.32Zm0 7.37q1.09 0 1.61-.73t.52-2.14q0-1.41-.52-2.15t-1.61-.74q-1.11 0-1.64.74-.53.75-.53 2.15t.53 2.14q.53.73 1.64.73Zm5.91-11.14h2.09v7.23h.4q.21 0 .33-.05.12-.06.25-.23l2.17-2.68q.14-.17.3-.27.17-.09.43-.09h1.92l-2.71 3.24q-.29.38-.63.58.18.13.32.3.14.17.27.37l2.9 4.23h-1.89q-.25 0-.43-.08-.17-.08-.29-.29l-2.23-3.31q-.12-.2-.25-.26-.12-.06-.38-.06h-.48v4h-2.09v-12.63Zm13.28 3.91h2.11v8.72h-2.11v-8.72Zm2.4-2.54q0 .27-.11.51t-.3.41q-.18.18-.43.29-.24.1-.52.1-.27 0-.52-.1-.24-.11-.42-.29-.18-.17-.28-.41-.11-.24-.11-.51 0-.28.11-.53.1-.25.28-.42.18-.18.42-.29.25-.11.52-.11.28 0 .52.11.25.11.43.29.19.17.3.42.11.25.11.53Zm3.95 11.26h-2.1v-8.72h1.28q.41 0 .54.38l.14.65q.23-.26.48-.47.25-.21.53-.37.29-.15.61-.24.33-.09.72-.09.83 0 1.36.45.53.45.79 1.18.21-.43.51-.74.31-.31.67-.5.37-.2.78-.29.41-.1.83-.1.72 0 1.28.22t.95.65q.38.42.58 1.04.2.61.2 1.4v5.55h-2.1v-5.55q0-.83-.37-1.25-.36-.43-1.07-.43-.32 0-.6.12-.27.11-.48.31-.21.21-.33.53-.12.31-.12.72v5.55h-2.1v-5.55q0-.88-.36-1.28-.35-.4-1.03-.4-.46 0-.85.23-.4.23-.74.62v6.38Zm16.75-2.25v-1.47q-.91.04-1.53.15-.63.12-1 .3t-.53.41q-.17.24-.17.52 0 .55.33.79t.86.24q.64 0 1.11-.23.47-.24.93-.71Zm-4.44-4.58-.38-.68q1.51-1.37 3.63-1.37.76 0 1.36.25.61.25 1.02.7.42.44.64 1.06.21.62.21 1.36v5.51h-.95q-.3 0-.46-.09-.16-.09-.25-.36l-.19-.63q-.33.3-.65.52-.31.23-.65.38t-.73.24q-.38.08-.85.08-.55 0-1.02-.15t-.81-.45q-.34-.3-.53-.74-.18-.44-.18-1.03 0-.33.11-.66.11-.32.36-.62t.65-.56q.4-.26.98-.46t1.36-.32q.77-.12 1.77-.15v-.51q0-.87-.38-1.29-.37-.43-1.08-.43-.51 0-.84.12-.34.12-.59.27l-.47.27q-.21.12-.46.12-.22 0-.38-.12-.15-.11-.24-.26Zm11.64 2.26q.39 0 .68-.11.29-.11.48-.29.19-.19.29-.45.1-.27.1-.58 0-.65-.39-1.03-.38-.37-1.16-.37-.77 0-1.16.37-.38.38-.38 1.03 0 .3.09.57.1.26.29.45.19.19.49.3.29.11.67.11Zm2.37 4.96q0-.25-.15-.42-.15-.16-.41-.25-.27-.09-.62-.13-.35-.04-.75-.06l-.81-.04q-.43-.02-.83-.07-.34.2-.56.46-.22.26-.22.61 0 .23.12.43.11.2.36.35.25.14.65.22.4.08.98.08.59 0 1.01-.09.43-.09.7-.24.28-.16.41-.38.12-.21.12-.47Zm-.41-8.81h2.51v.78q0 .37-.45.46l-.79.14q.18.45.18.99 0 .64-.26 1.17-.26.52-.72.88-.45.37-1.08.57-.62.2-1.35.2-.25 0-.49-.03-.24-.02-.47-.06-.41.24-.41.55 0 .26.25.39.24.12.64.17.4.05.91.06.51.02 1.04.06.54.04 1.05.15.51.1.91.33t.64.63q.24.39.24 1.01 0 .58-.28 1.13-.29.54-.83.97-.54.42-1.32.68-.79.26-1.79.26-.99 0-1.72-.19t-1.21-.51q-.49-.32-.73-.74-.23-.41-.23-.86 0-.62.37-1.03.36-.41 1.01-.66-.35-.18-.55-.47-.21-.3-.21-.79 0-.19.08-.4.07-.21.21-.41.14-.21.35-.39.21-.18.5-.33-.66-.35-1.04-.95-.38-.59-.38-1.39 0-.65.26-1.17.26-.52.73-.89.46-.37 1.09-.57.64-.19 1.38-.19.56 0 1.06.11.49.12.9.34Zm5.49 3.06h3.96q0-.41-.11-.77-.12-.36-.35-.64-.23-.27-.58-.43-.35-.15-.82-.15-.91 0-1.43.52-.53.51-.67 1.47Zm5.35 1.26h-5.39q.05.67.24 1.16.18.49.49.81.3.32.72.48.43.15.94.15t.88-.12q.37-.11.64-.26.28-.14.49-.26.2-.12.4-.12.26 0 .39.19l.6.77q-.34.41-.78.68-.43.28-.9.45-.47.16-.96.23t-.95.07q-.91 0-1.69-.3-.78-.31-1.36-.9-.58-.59-.91-1.46-.33-.87-.33-2.02 0-.89.29-1.68.28-.78.82-1.36.54-.59 1.32-.93.78-.34 1.76-.34.82 0 1.52.27.7.26 1.2.77.5.5.78 1.24.29.73.29 1.68 0 .47-.1.64-.11.16-.4.16Zm8.3-8.53v4.84q.51-.47 1.12-.77.61-.3 1.44-.3.71 0 1.27.25.55.24.92.68.37.43.56 1.04.19.61.19 1.34v5.55h-2.1v-5.55q0-.8-.36-1.24-.37-.44-1.12-.44-.54 0-1.02.25-.47.25-.9.67v6.31h-2.1v-12.63h2.1Zm9.15 7.27h3.96q0-.41-.12-.77-.11-.36-.34-.64-.23-.27-.58-.43-.36-.15-.82-.15-.91 0-1.44.52-.52.51-.66 1.47Zm5.35 1.26h-5.4q.06.67.24 1.16.19.49.5.81.3.32.72.48.42.15.93.15t.88-.12q.37-.11.65-.26.27-.14.48-.26.21-.12.41-.12.26 0 .39.19l.6.77q-.35.41-.78.68-.43.28-.91.45-.47.16-.96.23t-.94.07q-.91 0-1.7-.3-.78-.31-1.36-.9-.57-.59-.91-1.46-.33-.87-.33-2.02 0-.89.29-1.68.29-.78.83-1.36.54-.59 1.32-.93.78-.34 1.75-.34.83 0 1.53.27.69.26 1.19.77.51.5.79 1.24.28.73.28 1.68 0 .47-.1.64-.1.16-.39.16Zm3.92-4.09.13.98q.41-.78.97-1.23.56-.44 1.32-.44.61 0 .97.26l-.13 1.57q-.05.16-.13.22t-.21.06q-.13 0-.38-.04t-.49-.04q-.35 0-.62.1t-.49.29q-.22.2-.38.47-.17.27-.31.62v5.37h-2.1v-8.72h1.23q.32 0 .45.11.13.12.17.42Zm6.15 2.83h3.96q0-.41-.12-.77-.11-.36-.34-.64-.23-.27-.58-.43-.36-.15-.82-.15-.91 0-1.44.52-.52.51-.66 1.47Zm5.35 1.26h-5.4q.05.67.24 1.16.19.49.49.81.31.32.73.48.42.15.93.15t.88-.12q.37-.11.65-.26.27-.14.48-.26.21-.12.41-.12.26 0 .39.19l.6.77q-.35.41-.78.68-.44.28-.91.45-.47.16-.96.23t-.95.07q-.9 0-1.69-.3-.78-.31-1.36-.9-.57-.59-.91-1.46-.33-.87-.33-2.02 0-.89.29-1.68.29-.78.83-1.36.54-.59 1.32-.93.78-.34 1.75-.34.83 0 1.52.27.7.26 1.2.77.5.5.79 1.24.28.73.28 1.68 0 .47-.1.64-.1.16-.39.16Zm-95.79 12.21v12.29h-2.3v-12.29h2.3Zm5.12 12.29h-2.1v-7.14l-.76-.12q-.24-.05-.39-.17-.15-.13-.15-.36v-.85h1.3v-.65q0-.75.23-1.34.22-.6.64-1.01.42-.42 1.03-.64.6-.22 1.36-.22.6 0 1.12.16l-.04 1.05q-.01.12-.07.19-.06.08-.16.11-.1.04-.22.05-.13.02-.28.02-.37 0-.66.08-.3.08-.5.28t-.31.53q-.11.32-.11.81v.58h2.27v1.49h-2.2v7.15Zm7.58-8.72h2.11v8.72h-2.11v-8.72Zm2.4-2.54q0 .27-.11.51t-.29.41q-.19.18-.43.29-.25.11-.53.11-.27 0-.51-.11-.25-.11-.43-.29-.17-.17-.28-.41-.11-.24-.11-.51 0-.28.11-.53t.28-.42q.18-.18.43-.29.24-.11.51-.11.28 0 .53.11.24.11.43.29.18.17.29.42.11.25.11.53Zm4.76 11.4q-1.14 0-1.75-.65-.6-.64-.6-1.77v-4.87h-.9q-.17 0-.29-.11-.11-.11-.11-.33v-.83l1.4-.23.44-2.38q.04-.17.16-.27.12-.09.31-.09h1.08v2.75h2.33v1.49h-2.33v4.73q0 .41.2.64.2.22.55.22.2 0 .33-.04.13-.05.23-.1t.17-.1q.08-.04.16-.04.09 0 .15.04.06.05.13.14l.63 1.02q-.46.39-1.06.58-.59.2-1.23.2Zm9.21-5.5h3.96q0-.41-.12-.77-.11-.36-.34-.64-.23-.27-.58-.43-.36-.15-.82-.15-.91 0-1.44.52-.52.51-.66 1.47Zm5.35 1.26h-5.4q.05.67.24 1.16.19.49.49.81.31.32.73.48.42.15.93.15t.88-.11q.37-.12.65-.27.27-.14.48-.26.21-.12.41-.12.26 0 .39.19l.6.77q-.35.41-.78.68-.44.28-.91.45-.47.16-.96.23t-.95.07q-.9 0-1.69-.3-.78-.31-1.36-.9-.57-.59-.91-1.46-.33-.87-.33-2.02 0-.89.29-1.68.29-.78.83-1.36.54-.59 1.32-.93.78-.34 1.75-.34.83 0 1.52.27.7.26 1.2.77.5.5.79 1.24.28.73.28 1.68 0 .47-.1.64-.1.16-.39.16Zm6.87-.49 2.98 4.59h-2.02q-.23 0-.37-.12-.14-.12-.23-.27l-1.85-3.04q-.04.15-.1.28-.05.12-.12.23l-1.63 2.53q-.1.14-.23.27-.14.12-.34.12h-1.88l2.99-4.5-2.87-4.22h2.02q.23 0 .34.06.11.07.2.21l1.83 2.91q.09-.29.26-.57l1.47-2.3q.19-.31.48-.31h1.93l-2.86 4.13Zm4.14-4.13h2.11v8.72h-2.11v-8.72Zm2.4-2.54q0 .27-.12.51-.11.24-.29.41-.18.18-.43.29-.24.11-.52.11t-.52-.11q-.24-.11-.42-.29-.18-.17-.28-.41-.11-.24-.11-.51 0-.28.11-.53.1-.25.28-.42.18-.18.42-.29.24-.11.52-.11t.52.11q.25.11.43.29.18.17.29.42.12.25.12.53Zm7.65 3.48-.48.76q-.09.14-.18.19-.09.06-.24.06t-.32-.09q-.18-.08-.41-.19-.23-.11-.52-.19-.29-.09-.69-.09-.62 0-.98.27-.35.26-.35.69 0 .28.18.47.19.19.49.33.3.15.68.26.38.12.78.25.39.14.78.31.38.18.68.44.3.27.49.65.18.37.18.9 0 .63-.23 1.16-.22.53-.66.92-.45.38-1.1.6-.65.22-1.5.22-.45 0-.88-.08-.43-.09-.82-.23-.4-.14-.73-.34-.34-.2-.59-.42l.48-.8q.1-.15.22-.22.13-.08.33-.08.19 0 .37.11.17.11.4.24.23.12.54.24.31.11.79.11.37 0 .64-.09t.44-.24q.17-.14.25-.33.09-.19.09-.4 0-.3-.19-.5-.18-.2-.48-.34t-.69-.26q-.39-.11-.79-.25t-.79-.32q-.39-.18-.69-.46-.3-.28-.48-.69-.19-.41-.19-.99 0-.53.22-1.02.21-.48.62-.84.41-.36 1.03-.58.61-.22 1.42-.22.9 0 1.64.3.74.3 1.24.78Zm4.58 7.92q-1.14 0-1.75-.65-.61-.64-.61-1.77v-4.87h-.89q-.17 0-.29-.11-.12-.11-.12-.33v-.83l1.4-.23.45-2.38q.04-.17.16-.27.12-.09.3-.09h1.09v2.75h2.33v1.49h-2.33v4.73q0 .41.2.64.2.22.55.22.2 0 .33-.04.13-.05.23-.1.09-.05.17-.1.08-.04.15-.04.1 0 .16.04.06.05.12.14l.63 1.02q-.46.39-1.05.58-.6.2-1.23.2Zm9.21-7.92-.48.76q-.08.14-.17.19-.1.06-.24.06-.15 0-.33-.09l-.4-.19q-.23-.11-.53-.19-.29-.09-.69-.09-.62 0-.97.27-.35.26-.35.69 0 .28.18.47.18.19.48.33.3.15.69.26.38.12.77.25.4.14.78.31.39.18.69.44.3.27.48.65.18.37.18.9 0 .63-.22 1.16-.23.53-.67.92-.44.38-1.09.6-.65.22-1.5.22-.45 0-.88-.08-.43-.09-.83-.23-.39-.14-.73-.34-.33-.2-.59-.42l.49-.8q.09-.15.22-.22.13-.08.32-.08.2 0 .37.11.18.11.41.24.22.12.53.24.32.11.79.11.38 0 .64-.09.27-.09.44-.24.18-.14.26-.33.08-.19.08-.4 0-.3-.18-.5t-.49-.34q-.3-.14-.69-.26-.38-.11-.79-.25-.4-.14-.79-.32-.38-.18-.68-.46-.31-.28-.49-.69-.18-.41-.18-.99 0-.53.21-1.02.21-.48.63-.84.41-.36 1.02-.58.62-.22 1.43-.22.9 0 1.64.3.74.3 1.23.78Z"/></svg>