<svg xmlns="http://www.w3.org/2000/svg" width="180" height="230" viewBox="0 0 180 230"><rect width="100%" height="100%" fill="#DDDDDD"/><path fill="#999999" d="M38.045 120.785h2.99q.83 0 1.39-.2.56-.2.89-.53.34-.33.49-.77.15-.44.15-.93 0-.52-.17-.93-.16-.41-.52-.7-.35-.3-.9-.45-.56-.15-1.34-.15h-2.98v4.66Zm2.52-11.31h-2.52v4.6h2.35q1.52 0 2.3-.55.77-.55.77-1.75 0-1.24-.7-1.77-.71-.53-2.2-.53Zm-5.48-2.29h5.48q1.56 0 2.67.3 1.11.3 1.82.85t1.04 1.33q.33.78.33 1.76 0 .56-.16 1.07-.17.51-.52.96-.34.44-.88.81-.53.36-1.27.61 3.28.74 3.28 3.55 0 1.01-.38 1.87-.39.85-1.13 1.47-.73.63-1.81.98t-2.46.35h-6.01v-15.91Zm19.05 4.45q1.26 0 2.28.41 1.03.4 1.76 1.15.74.75 1.13 1.83.4 1.07.4 2.4 0 1.35-.4 2.43-.39 1.07-1.13 1.83-.73.76-1.76 1.17-1.02.4-2.28.4-1.26 0-2.3-.4-1.03-.41-1.76-1.17t-1.14-1.83q-.4-1.08-.4-2.43 0-1.33.4-2.4.41-1.08 1.14-1.83t1.76-1.15q1.04-.41 2.3-.41Zm0 9.54q1.41 0 2.09-.95.67-.95.67-2.77 0-1.83-.67-2.79-.68-.95-2.09-.95-1.43 0-2.12.96-.68.96-.68 2.78 0 1.81.68 2.76.69.96 2.12.96Zm12.64-9.54q1.25 0 2.28.41 1.03.4 1.76 1.15.73.75 1.13 1.83.4 1.07.4 2.4 0 1.35-.4 2.43-.4 1.07-1.13 1.83-.73.76-1.76 1.17-1.03.4-2.28.4-1.26 0-2.3-.4-1.03-.41-1.76-1.17-.74-.76-1.14-1.83-.4-1.08-.4-2.43 0-1.33.4-2.4.4-1.08 1.14-1.83.73-.75 1.76-1.15 1.04-.41 2.3-.41Zm0 9.54q1.41 0 2.08-.95.68-.95.68-2.77 0-1.83-.68-2.79-.67-.95-2.08-.95-1.43 0-2.12.96-.68.96-.68 2.78 0 1.81.68 2.76.69.96 2.12.96Zm7.65-14.43h2.71v9.37h.51q.27 0 .43-.08.16-.07.33-.29l2.8-3.46q.18-.23.39-.35.22-.13.56-.13h2.48l-3.5 4.2q-.38.49-.82.75.23.17.41.39.19.22.35.47l3.76 5.48h-2.45q-.32 0-.55-.1-.23-.11-.39-.38l-2.88-4.28q-.15-.26-.32-.33-.16-.08-.49-.08h-.62v5.17h-2.71v-16.35Zm25.9 6.46-.71.99q-.13.16-.24.24-.12.09-.34.09-.21 0-.4-.13-.2-.12-.48-.28-.27-.16-.65-.29-.38-.12-.94-.12-.72 0-1.26.25-.53.26-.89.75-.36.48-.54 1.17-.17.69-.17 1.55 0 .91.19 1.61.19.71.56 1.18.36.48.88.73.51.25 1.16.25.65 0 1.05-.16t.68-.35q.27-.2.48-.36.2-.16.45-.16.33 0 .5.26l.78.99q-.45.52-.98.88t-1.09.57q-.57.22-1.17.31-.6.08-1.19.08-1.05 0-1.97-.39-.93-.39-1.62-1.13-.69-.75-1.09-1.84-.4-1.08-.4-2.47 0-1.24.35-2.3.36-1.06 1.05-1.84.7-.77 1.72-1.21 1.02-.44 2.35-.44 1.27 0 2.22.41.95.4 1.71 1.16Zm6.8-1.57q1.25 0 2.28.41 1.03.4 1.76 1.15.73.75 1.13 1.83.39 1.07.39 2.4 0 1.35-.39 2.43-.4 1.07-1.13 1.83-.73.76-1.76 1.17-1.03.4-2.28.4-1.27 0-2.3-.4-1.03-.41-1.77-1.17-.73-.76-1.13-1.83-.4-1.08-.4-2.43 0-1.33.4-2.4.4-1.08 1.13-1.83.74-.75 1.77-1.15 1.03-.41 2.3-.41Zm0 9.54q1.41 0 2.08-.95.68-.95.68-2.77 0-1.83-.68-2.79-.67-.95-2.08-.95-1.43 0-2.12.96-.69.96-.69 2.78 0 1.81.69 2.76.69.96 2.12.96Zm15.67-9.37h2.15l-4.48 11.29h-2.46l-4.48-11.29h2.24q.31 0 .52.15.2.14.27.36l2.17 6.03q.18.53.31 1.03.13.51.23 1.01.11-.5.24-1.01.14-.5.32-1.03l2.23-6.03q.07-.22.27-.36.2-.15.47-.15Zm5.73 4.35h5.13q0-.53-.15-1-.15-.46-.44-.82-.3-.35-.76-.55-.45-.2-1.06-.2-1.18 0-1.85.67-.68.67-.87 1.9Zm6.93 1.64h-6.98q.07.87.31 1.5t.64 1.04q.39.42.94.62.54.2 1.2.2.66 0 1.14-.15.48-.15.83-.34.36-.19.63-.34.27-.16.52-.16.35 0 .51.26l.78.99q-.45.52-1.01.88t-1.17.57q-.61.22-1.25.31-.63.08-1.22.08-1.18 0-2.19-.39t-1.76-1.15q-.75-.77-1.18-1.89-.43-1.13-.43-2.61 0-1.16.38-2.18.37-1.01 1.07-1.77.7-.75 1.7-1.19 1.01-.44 2.28-.44 1.06 0 1.97.34.9.34 1.55.99.65.66 1.01 1.61.37.95.37 2.17 0 .62-.13.83-.13.22-.51.22Zm5.08-5.3.16 1.27q.53-1.01 1.25-1.59.73-.57 1.72-.57.78 0 1.25.34l-.17 2.03q-.06.2-.16.28-.11.08-.28.08-.17 0-.49-.05-.33-.06-.63-.06-.45 0-.81.14-.35.13-.63.38-.28.24-.49.6-.22.35-.41.8v6.95h-2.71v-11.29h1.59q.42 0 .59.15.16.15.22.54Z"/></svg>