<svg xmlns="http://www.w3.org/2000/svg" width="210" height="290" viewBox="0 0 210 290"><rect width="100%" height="100%" fill="#DDDDDD"/><path fill="#999999" d="M45.78 147.36q.13 0 .24.11l.63.69q-.53.65-1.3 1t-1.85.35q-.96 0-1.73-.33-.78-.33-1.32-.92-.55-.59-.84-1.41-.29-.81-.29-1.78 0-.98.31-1.79t.88-1.4q.57-.59 1.35-.92.79-.32 1.74-.32t1.69.31q.73.31 1.25.82l-.54.75q-.05.07-.12.12-.08.06-.21.06-.09 0-.19-.06-.09-.05-.21-.12-.11-.08-.26-.17-.15-.09-.35-.16-.2-.08-.46-.13t-.6-.05q-.58 0-1.07.21-.48.21-.83.6t-.54.96q-.19.57-.19 1.29 0 .73.21 1.3.2.57.56.96.35.39.83.6.48.21 1.03.21.33 0 .6-.04.27-.03.49-.11.23-.08.43-.2.2-.13.4-.31.06-.05.12-.08.07-.04.14-.04Zm1.77-6.87h1.48v8.92h-1.48v-8.92Zm3.01 2.76h1.49v6.16h-1.49v-6.16Zm1.69-1.79q0 .19-.08.36-.08.17-.2.29-.13.13-.31.21-.17.07-.37.07-.19 0-.36-.07-.17-.08-.3-.21-.13-.12-.2-.29-.08-.17-.08-.36 0-.2.08-.37.07-.18.2-.3.13-.13.3-.2.17-.08.36-.08.2 0 .37.08.18.07.31.2.12.12.2.3.08.17.08.37Zm6.11 2.56-.39.54q-.07.08-.13.13t-.18.05q-.12 0-.23-.07-.1-.07-.25-.16t-.36-.15q-.21-.07-.51-.07-.39 0-.69.14-.29.14-.49.4-.19.27-.29.64-.09.38-.09.85 0 .49.1.88.11.38.3.64.2.26.48.4.29.13.64.13.35 0 .57-.09.22-.08.37-.19.15-.1.26-.19.11-.09.25-.09.18 0 .27.14l.43.54q-.25.29-.54.49-.28.19-.59.31-.31.11-.64.16t-.65.05q-.57 0-1.07-.21-.51-.22-.89-.62-.37-.41-.59-1-.22-.59-.22-1.35 0-.68.19-1.26.2-.58.58-1 .37-.42.93-.66.56-.24 1.29-.24.69 0 1.21.22.51.22.93.64Zm.98-3.53h1.48v5.11h.28q.15 0 .24-.04.08-.04.17-.16l1.53-1.89q.1-.12.22-.19.11-.07.3-.07h1.36L63 145.54q-.2.27-.44.41.12.09.22.21t.19.26l2.05 2.99h-1.33q-.18 0-.3-.06-.13-.05-.21-.2l-1.58-2.34q-.08-.14-.17-.18-.09-.04-.27-.04h-.34v2.82h-1.48v-8.92Zm10.81 0v3.42q.36-.33.8-.54.43-.21 1.01-.21.5 0 .89.17t.66.48q.26.31.39.74.14.43.14.94v3.92h-1.49v-3.92q0-.56-.25-.87-.26-.31-.79-.31-.38 0-.72.17-.34.18-.64.48v4.45h-1.48v-8.92h1.48Zm6.46 5.13h2.8q0-.28-.08-.54-.09-.25-.25-.45-.16-.19-.41-.3-.25-.11-.58-.11-.64 0-1.01.37-.37.36-.47 1.03Zm3.78.9h-3.81q.04.47.17.82.13.34.35.57.21.22.51.33.3.11.66.11.36 0 .62-.08t.45-.19q.2-.1.35-.18.14-.09.28-.09.19 0 .28.14l.42.54q-.24.29-.55.49-.31.19-.64.31-.33.11-.68.16-.34.05-.67.05-.64 0-1.19-.21-.55-.22-.96-.63-.41-.42-.64-1.04-.24-.61-.24-1.42 0-.63.21-1.19.2-.55.58-.96.38-.41.93-.65.55-.24 1.24-.24.58 0 1.08.18.49.19.84.55.36.35.56.87.2.52.2 1.19 0 .33-.07.45-.08.12-.28.12Zm2.77-2.89.09.69q.28-.55.68-.87.4-.31.94-.31.42 0 .68.19l-.1 1.11q-.03.1-.08.15-.06.04-.16.04-.09 0-.26-.03-.18-.03-.35-.03-.24 0-.44.08-.19.07-.34.2-.15.14-.27.33-.12.19-.22.44v3.79h-1.48v-6.16h.87q.23 0 .32.08.09.09.12.3Zm4.33 1.99h2.8q0-.28-.08-.54-.08-.25-.24-.45-.17-.19-.41-.3-.25-.11-.58-.11-.65 0-1.01.37-.37.36-.48 1.03Zm3.78.9h-3.81q.04.47.17.82.13.34.35.57.22.22.51.33.3.11.66.11.36 0 .62-.08t.46-.19l.34-.18q.15-.09.28-.09.19 0 .28.14l.43.54q-.25.29-.56.49-.3.19-.63.31-.34.11-.68.16-.35.05-.67.05-.64 0-1.2-.21-.55-.22-.96-.63-.4-.42-.64-1.04-.23-.61-.23-1.42 0-.63.2-1.19.21-.55.59-.96.38-.41.93-.65.55-.24 1.24-.24.58 0 1.07.18.49.19.85.55.35.35.55.87.2.52.2 1.19 0 .33-.07.45t-.28.12Zm6.43 2.99q-.8 0-1.23-.46-.43-.45-.43-1.25v-3.44h-.63q-.12 0-.21-.07-.08-.08-.08-.24v-.59l.99-.16.31-1.68q.03-.12.12-.18.08-.07.21-.07h.77v1.94h1.64v1.05h-1.64v3.34q0 .29.14.45.14.16.39.16.14 0 .23-.03t.16-.07l.12-.07q.06-.03.11-.03.07 0 .11.03.04.03.09.1l.44.72q-.32.27-.74.41-.42.14-.87.14Zm5.14-6.35q.68 0 1.24.22.56.22.96.63.4.41.62 1 .21.58.21 1.31 0 .73-.21 1.32-.22.59-.62 1-.4.42-.96.64-.56.22-1.24.22-.69 0-1.26-.22-.56-.22-.96-.64-.4-.41-.62-1-.22-.59-.22-1.32 0-.73.22-1.31.22-.59.62-1 .4-.41.96-.63.57-.22 1.26-.22Zm0 5.2q.76 0 1.13-.52.37-.51.37-1.51 0-.99-.37-1.52-.37-.52-1.13-.52-.78 0-1.16.53-.37.52-.37 1.51t.37 1.51q.38.52 1.16.52Zm10.33-.54v-1.04q-.64.03-1.08.11-.43.08-.7.21-.26.13-.38.29-.11.17-.11.37 0 .39.23.56.23.17.6.17.46 0 .79-.17.34-.16.65-.5Zm-3.13-3.23-.26-.48q1.06-.97 2.55-.97.54 0 .97.18.43.17.72.49.29.31.45.75.15.44.15.96v3.89h-.67q-.21 0-.33-.06-.11-.07-.18-.26l-.13-.44q-.23.21-.45.37-.23.16-.47.26-.24.11-.51.17-.27.06-.6.06-.39 0-.72-.11-.33-.1-.57-.31-.24-.21-.37-.53-.14-.31-.14-.72 0-.24.08-.47.08-.23.26-.44.17-.21.46-.39.28-.19.69-.33.41-.14.96-.22.54-.09 1.24-.11v-.36q0-.62-.26-.91-.26-.3-.76-.3-.36 0-.6.08-.24.09-.42.19-.18.11-.32.19-.15.09-.33.09-.16 0-.26-.08-.11-.09-.18-.19Zm9.84 3v-2.76q-.26-.31-.55-.44-.3-.12-.64-.12t-.61.12q-.27.13-.46.39-.19.25-.29.64-.11.4-.11.93 0 .54.09.91.09.38.25.62.16.23.4.34.23.1.52.1.46 0 .78-.19.33-.19.62-.54Zm0-7.1h1.48v8.92h-.91q-.29 0-.37-.27l-.13-.59q-.37.42-.85.69-.48.26-1.13.26-.5 0-.92-.21-.42-.21-.72-.61-.31-.4-.47-.99-.17-.58-.17-1.34 0-.68.19-1.27t.53-1.02q.35-.43.84-.68.48-.24 1.09-.24.52 0 .88.16.37.16.66.44v-3.25Zm6.81 7.1v-2.76q-.26-.31-.55-.44-.3-.12-.64-.12t-.61.12q-.27.13-.46.39-.19.25-.29.64-.11.4-.11.93 0 .54.09.91.09.38.25.62.16.23.4.34.23.1.52.1.46 0 .78-.19.33-.19.62-.54Zm0-7.1h1.48v8.92h-.91q-.29 0-.37-.27l-.13-.59q-.37.42-.85.69-.48.26-1.13.26-.5 0-.92-.21-.42-.21-.72-.61-.31-.4-.47-.99-.17-.58-.17-1.34 0-.68.19-1.27t.53-1.02q.35-.43.84-.68.48-.24 1.09-.24.52 0 .88.16.37.16.66.44v-3.25Zm9.11 7.33v-1.04q-.64.03-1.08.11-.44.08-.7.21-.27.13-.38.29-.11.17-.11.37 0 .39.23.56.23.17.6.17.46 0 .79-.17.33-.16.65-.5Zm-3.13-3.23-.27-.48q1.07-.97 2.56-.97.54 0 .97.18.42.17.72.49.29.31.44.75.16.44.16.96v3.89h-.68q-.21 0-.32-.06-.11-.07-.18-.26l-.13-.44q-.24.21-.46.37-.22.16-.46.26-.24.11-.51.17-.28.06-.61.06-.39 0-.72-.11-.33-.1-.57-.31-.24-.21-.37-.53-.13-.31-.13-.72 0-.24.08-.47.08-.23.25-.44.18-.21.46-.39.28-.19.7-.33.41-.14.95-.22.55-.09 1.25-.11v-.36q0-.62-.26-.91-.27-.3-.77-.3-.36 0-.59.08-.24.09-.42.19-.18.11-.33.19-.14.09-.32.09-.16 0-.27-.08-.11-.09-.17-.19Zm13.68-.57-.39.54q-.06.08-.12.13-.07.05-.19.05-.11 0-.22-.07t-.26-.16q-.15-.09-.35-.15-.21-.07-.52-.07-.39 0-.68.14-.3.14-.49.4-.2.27-.29.64-.1.38-.1.85 0 .49.11.88.1.38.3.64.2.26.48.4.28.13.64.13.35 0 .57-.09.22-.08.37-.19.15-.1.26-.19.11-.09.25-.09.18 0 .27.14l.42.54q-.24.29-.53.49-.29.19-.6.31-.31.11-.63.16-.33.05-.65.05-.57 0-1.08-.21-.5-.22-.88-.62-.38-.41-.6-1-.22-.59-.22-1.35 0-.68.2-1.26.19-.58.57-1 .38-.42.94-.66.56-.24 1.28-.24.69 0 1.21.22t.93.64Zm3.71-.86q.69 0 1.25.22t.96.63q.4.41.61 1 .22.58.22 1.31 0 .73-.22 1.32-.21.59-.61 1-.4.42-.96.64-.56.22-1.25.22t-1.25-.22q-.57-.22-.96-.64-.4-.41-.62-1-.22-.59-.22-1.32 0-.73.22-1.31.22-.59.62-1 .39-.41.96-.63.56-.22 1.25-.22Zm0 5.2q.77 0 1.14-.52.37-.51.37-1.51 0-.99-.37-1.52-.37-.52-1.14-.52-.78 0-1.15.53-.38.52-.38 1.51t.38 1.51q.37.52 1.15.52Zm8.55-5.11h1.17l-2.44 6.16H156l-2.45-6.16h1.23q.17 0 .28.08.11.08.14.2l1.19 3.29q.1.29.17.56.07.28.13.55.06-.27.13-.55.07-.27.17-.56l1.21-3.29q.05-.12.15-.2.11-.08.26-.08Zm3.13 2.37h2.79q0-.28-.08-.54-.08-.25-.24-.45-.16-.19-.41-.3-.25-.11-.58-.11-.64 0-1.01.37-.37.36-.47 1.03Zm3.78.9h-3.81q.03.47.17.82.13.34.34.57.22.22.52.33.29.11.65.11.36 0 .63-.08.26-.08.45-.19.2-.1.34-.18.15-.09.29-.09.18 0 .27.14l.43.54q-.25.29-.55.49-.31.19-.64.31-.33.11-.68.16-.34.05-.67.05-.64 0-1.19-.21-.55-.22-.96-.63-.41-.42-.64-1.04-.24-.61-.24-1.42 0-.63.21-1.19.2-.55.58-.96.38-.41.93-.65.55-.24 1.24-.24.58 0 1.07.18.5.19.85.55.35.35.56.87.2.52.2 1.19 0 .33-.08.45-.07.12-.27.12Zm2.76-2.89.09.69q.29-.55.69-.87.39-.31.93-.31.43 0 .69.19l-.1 1.11q-.03.1-.08.15-.06.04-.16.04-.09 0-.26-.03-.18-.03-.35-.03-.25 0-.44.08-.19.07-.34.2-.16.14-.27.33-.12.19-.22.44v3.79h-1.48v-6.16h.87q.22 0 .31.08.09.09.12.3Z"/></svg>